<svg xmlns:xlink="http://www.w3.org/1999/xlink" xmlns="http://www.w3.org/2000/svg" width="42" height="42" viewBox="0 0 42 42" fill="none"><rect x="1" y="1" width="40" height="40" rx="4" fill="#034737" fill-opacity="0.05"></rect><rect x="0.5" y="0.5" width="41" height="41" rx="4.5" stroke="#034737" stroke-opacity="0.2" fill="#FFFFFF"></rect><path d="M21 11.25C19.0716 11.25 17.1866 11.8218 15.5832 12.8932C13.9798 13.9645 12.7301 15.4873 11.9922 17.2688C11.2542 19.0504 11.0611 21.0108 11.4373 22.9021C11.8136 24.7934 12.7422 26.5307 14.1057 27.8943C15.4693 29.2579 17.2066 30.1865 19.0979 30.5627C20.9892 30.9389 22.9496 30.7458 24.7312 30.0078C26.5127 29.2699 28.0355 28.0202 29.1068 26.4168C30.1782 24.8134 30.75 22.9284 30.75 21C30.7473 18.415 29.7192 15.9366 27.8913 14.1087C26.0634 12.2808 23.585 11.2527 21 11.25ZM21 29.25C19.3683 29.25 17.7733 28.7661 16.4165 27.8596C15.0598 26.9531 14.0024 25.6646 13.378 24.1571C12.7536 22.6496 12.5902 20.9908 12.9085 19.3905C13.2269 17.7902 14.0126 16.3202 15.1664 15.1664C16.3202 14.0126 17.7902 13.2268 19.3905 12.9085C20.9909 12.5902 22.6497 12.7536 24.1571 13.378C25.6646 14.0024 26.9531 15.0598 27.8596 16.4165C28.7662 17.7733 29.25 19.3683 29.25 21C29.2475 23.1873 28.3775 25.2843 26.8309 26.8309C25.2843 28.3775 23.1873 29.2475 21 29.25ZM22.5 25.5C22.5 25.6989 22.421 25.8897 22.2803 26.0303C22.1397 26.171 21.9489 26.25 21.75 26.25C21.3522 26.25 20.9706 26.092 20.6893 25.8107C20.408 25.5294 20.25 25.1478 20.25 24.75V21C20.0511 21 19.8603 20.921 19.7197 20.7803C19.579 20.6397 19.5 20.4489 19.5 20.25C19.5 20.0511 19.579 19.8603 19.7197 19.7197C19.8603 19.579 20.0511 19.5 20.25 19.5C20.6478 19.5 21.0294 19.658 21.3107 19.9393C21.592 20.2206 21.75 20.6022 21.75 21V24.75C21.9489 24.75 22.1397 24.829 22.2803 24.9697C22.421 25.1103 22.5 25.3011 22.5 25.5ZM19.5 16.875C19.5 16.6525 19.566 16.435 19.6896 16.25C19.8132 16.065 19.9889 15.9208 20.1945 15.8356C20.4001 15.7505 20.6263 15.7282 20.8445 15.7716C21.0627 15.815 21.2632 15.9222 21.4205 16.0795C21.5778 16.2368 21.685 16.4373 21.7284 16.6555C21.7718 16.8738 21.7495 17.1 21.6644 17.3055C21.5792 17.5111 21.435 17.6868 21.25 17.8104C21.065 17.934 20.8475 18 20.625 18C20.3266 18 20.0405 17.8815 19.8295 17.6705C19.6185 17.4595 19.5 17.1734 19.5 16.875Z" fill="#034737"></path></svg>